<?xml version="1.0" standalone="no"?>
<!DOCTYPE svg PUBLIC "-//W3C//DTD SVG 20010904//EN"
 "http://www.w3.org/TR/2001/REC-SVG-20010904/DTD/svg10.dtd">
<svg version="1.0" xmlns="http://www.w3.org/2000/svg"
 width="1024.000000pt" height="1024.000000pt" viewBox="0 0 1024.000000 1024.000000"
 preserveAspectRatio="xMidYMid meet">

<g transform="translate(0.000000,1024.000000) scale(0.100000,-0.100000)"
fill="#000000" stroke="none">
<path d="M4900 7894 c-244 -29 -354 -50 -522 -100 -411 -120 -791 -346 -1094
-650 -435 -435 -684 -957 -754 -1579 -6 -57 -10 -643 -10 -1577 l0 -1488 2605
0 2606 0 -4 1542 c-3 1673 0 1573 -57 1826 -145 648 -548 1235 -1103 1606
-314 210 -664 344 -1052 402 -96 15 -535 27 -615 18z m526 -428 c403 -61 709
-184 1014 -409 111 -82 296 -259 383 -367 199 -247 365 -583 435 -885 58 -249
56 -178 59 -1597 l4 -1308 -369 0 -368 0 -34 35 c-77 79 -282 200 -452 265
-231 89 -656 180 -841 180 l-39 0 5 398 c7 627 21 664 277 746 47 15 144 56
215 91 354 171 577 402 709 733 70 174 116 411 116 592 l0 90 -46 0 c-68 0
-284 -46 -404 -86 -367 -123 -614 -324 -765 -624 -76 -152 -103 -246 -161
-565 -20 -104 -39 -194 -44 -199 -10 -10 -10 -12 -66 239 -54 244 -91 364
-140 455 -78 142 -218 296 -366 400 -213 150 -514 253 -748 254 l-105 1 2
-110 c5 -261 95 -572 221 -769 175 -273 451 -491 745 -587 85 -28 232 -52 250
-42 16 9 -2 49 -83 183 -110 183 -139 219 -338 417 -110 110 -166 173 -155
173 38 0 203 -128 323 -250 197 -201 316 -426 350 -666 5 -39 10 -251 10 -470
l1 -399 -93 -8 c-300 -25 -663 -116 -900 -225 -103 -48 -243 -134 -326 -201
l-62 -51 -358 0 -357 0 2 1177 c1 1267 4 1407 28 1553 164 997 914 1721 1905
1840 47 5 103 12 125 14 75 8 342 -3 441 -18z"/>
</g>
</svg>
